<svg width="40" height="40" viewBox="0 0 40 40" fill="none" xmlns="http://www.w3.org/2000/svg">
<path d="M25.0001 6.66602H15.0001C10.3984 6.66602 6.66675 10.3977 6.66675 14.9993V24.9993C6.66675 29.601 10.3984 33.3327 15.0001 33.3327H25.0001C29.6017 33.3327 33.3334 29.601 33.3334 24.9993V14.9993C33.3334 10.3977 29.6017 6.66602 25.0001 6.66602ZM30.8334 24.9993C30.8334 28.216 28.2167 30.8327 25.0001 30.8327H15.0001C11.7834 30.8327 9.16675 28.216 9.16675 24.9993V14.9993C9.16675 11.7827 11.7834 9.16602 15.0001 9.16602H25.0001C28.2167 9.16602 30.8334 11.7827 30.8334 14.9993V24.9993Z" fill="#FCFCFC"/>
<path d="M19.9999 13.332C16.3183 13.332 13.3333 16.317 13.3333 19.9987C13.3333 23.6804 16.3183 26.6654 19.9999 26.6654C23.6816 26.6654 26.6666 23.6804 26.6666 19.9987C26.6666 16.317 23.6816 13.332 19.9999 13.332ZM19.9999 24.1654C17.7033 24.1654 15.8333 22.2954 15.8333 19.9987C15.8333 17.7004 17.7033 15.832 19.9999 15.832C22.2966 15.832 24.1666 17.7004 24.1666 19.9987C24.1666 22.2954 22.2966 24.1654 19.9999 24.1654Z" fill="#FCFCFC"/>
<path d="M27.1667 13.722C27.6573 13.722 28.055 13.3243 28.055 12.8336C28.055 12.343 27.6573 11.9453 27.1667 11.9453C26.676 11.9453 26.2783 12.343 26.2783 12.8336C26.2783 13.3243 26.676 13.722 27.1667 13.722Z" fill="#FCFCFC"/>
</svg>
