<svg width="40" height="40" viewBox="0 0 40 40" fill="none" xmlns="http://www.w3.org/2000/svg">
<path d="M36.4999 12.8993C36.7166 12.1993 36.4999 11.666 35.4666 11.666H32.0999C31.2333 11.666 30.8499 12.116 30.6333 12.616C30.6333 12.616 28.9166 16.7993 26.4833 19.5327C25.6833 20.316 25.3333 20.566 24.8999 20.566C24.6833 20.566 24.3333 20.316 24.3333 19.5993V12.8993C24.3333 12.0493 24.1333 11.666 23.4166 11.666H18.0999C17.5666 11.666 17.2499 12.066 17.2499 12.4493C17.2499 13.2493 18.4999 13.4493 18.5833 15.7327V20.6993C18.5833 21.7993 18.3833 21.9993 17.9666 21.9993C16.8333 21.9993 14.0333 17.7827 12.3833 12.9827C12.0499 12.0493 11.7333 11.666 10.8666 11.666H7.48325C6.53325 11.666 6.33325 12.116 6.33325 12.616C6.33325 13.516 7.48325 17.9493 11.6666 23.816C14.4499 27.8327 18.3833 29.9993 21.9666 29.9993C24.1166 29.9993 24.3833 29.516 24.3833 28.6827V25.6494C24.3833 24.6994 24.5833 24.4993 25.2666 24.4993C25.7666 24.4993 26.6166 24.7493 28.6166 26.666C30.9166 28.966 31.2833 29.9993 32.5833 29.9993H35.9499C36.9166 29.9993 37.3999 29.516 37.1333 28.566C36.8333 27.616 35.7333 26.2327 34.2833 24.5993C33.4999 23.6827 32.3166 22.6827 31.9499 22.166C31.4499 21.5327 31.5999 21.2493 31.9499 20.666C31.9499 20.666 36.0666 14.8827 36.4999 12.8993Z" fill="#FCFCFC"/>
</svg>
